/* XPM */
const static char * checkers_xpm[] = {
"100 100 2 1",
" 	c #000015",
".	c #FFFFFF",
"          ..........          ..........          ..........          ..........          ..........",
"          ..........          ..........          ..........          ..........          ..........",
"          ..........          ..........          ..........          ..........          ..........",
"          ..........          ..........          ..........          ..........          ..........",
"          ..........          ..........          ..........          ..........          ..........",
"          ..........          ..........          ..........          ..........          ..........",
"          ..........          ..........          ..........          ..........          ..........",
"          ..........          ..........          ..........          ..........          ..........",
"          ..........          ..........          ..........          ..........          ..........",
"          ..........          ..........          ..........          ..........          ..........",
"..........          ..........          ..........          ..........          ..........          ",
"..........          ..........          ..........          ..........          ..........          ",
"..........          ..........          ..........          ..........          ..........          ",
"..........          ..........          ..........          ..........          ..........          ",
"..........          ..........          ..........          ..........          ..........          ",
"..........          ..........          ..........          ..........          ..........          ",
"..........          ..........          ..........          ..........          ..........          ",
"..........          ..........          ..........          ..........          ..........          ",
"..........          ..........          ..........          ..........          ..........          ",
"..........          ..........          ..........          ..........          ..........          ",
"          ..........          ..........          ..........          ..........          ..........",
"          ..........          ..........          ..........          ..........          ..........",
"          ..........          ..........          ..........          ..........          ..........",
"          ..........          ..........          ..........          ..........          ..........",
"          ..........          ..........          ..........          ..........          ..........",
"          ..........          ..........          ..........          ..........          ..........",
"          ..........          ..........          ..........          ..........          ..........",
"          ..........          ..........          ..........          ..........          ..........",
"          ..........          ..........          ..........          ..........          ..........",
"          ..........          ..........          ..........          ..........          ..........",
"..........          ..........          ..........          ..........          ..........          ",
"..........          ..........          ..........          ..........          ..........          ",
"..........          ..........          ..........          ..........          ..........          ",
"..........          ..........          ..........          ..........          ..........          ",
"..........          ..........          ..........          ..........          ..........          ",
"..........          ..........          ..........          ..........          ..........          ",
"..........          ..........          ..........          ..........          ..........          ",
"..........          ..........          ..........          ..........          ..........          ",
"..........          ..........          ..........          ..........          ..........          ",
"..........          ..........          ..........          ..........          ..........          ",
"          ..........          ..........          ..........          ..........          ..........",
"          ..........          ..........          ..........          ..........          ..........",
"          ..........          ..........          ..........          ..........          ..........",
"          ..........          ..........          ..........          ..........          ..........",
"          ..........          ..........          ..........          ..........          ..........",
"          ..........          ..........          ..........          ..........          ..........",
"          ..........          ..........          ..........          ..........          ..........",
"          ..........          ..........          ..........          ..........          ..........",
"          ..........          ..........          ..........          ..........          ..........",
"          ..........          ..........          ..........          ..........          ..........",
"..........          ..........          ..........          ..........          ..........          ",
"..........          ..........          ..........          ..........          ..........          ",
"..........          ..........          ..........          ..........          ..........          ",
"..........          ..........          ..........          ..........          ..........          ",
"..........          ..........          ..........          ..........          ..........          ",
"..........          ..........          ..........          ..........          ..........          ",
"..........          ..........          ..........          ..........          ..........          ",
"..........          ..........          ..........          ..........          ..........          ",
"..........          ..........          ..........          ..........          ..........          ",
"..........          ..........          ..........          ..........          ..........          ",
"          ..........          ..........          ..........          ..........          ..........",
"          ..........          ..........          ..........          ..........          ..........",
"          ..........          ..........          ..........          ..........          ..........",
"          ..........          ..........          ..........          ..........          ..........",
"          ..........          ..........          ..........          ..........          ..........",
"          ..........          ..........          ..........          ..........          ..........",
"          ..........          ..........          ..........          ..........          ..........",
"          ..........          ..........          ..........          ..........          ..........",
"          ..........          ..........          ..........          ..........          ..........",
"          ..........          ..........          ..........          ..........          ..........",
"..........          ..........          ..........          ..........          ..........          ",
"..........          ..........          ..........          ..........          ..........          ",
"..........          ..........          ..........          ..........          ..........          ",
"..........          ..........          ..........          ..........          ..........          ",
"..........          ..........          ..........          ..........          ..........          ",
"..........          ..........          ..........          ..........          ..........          ",
"..........          ..........          ..........          ..........          ..........          ",
"..........          ..........          ..........          ..........          ..........          ",
"..........          ..........          ..........          ..........          ..........          ",
"..........          ..........          ..........          ..........          ..........          ",
"          ..........          ..........          ..........          ..........          ..........",
"          ..........          ..........          ..........          ..........          ..........",
"          ..........          ..........          ..........          ..........          ..........",
"          ..........          ..........          ..........          ..........          ..........",
"          ..........          ..........          ..........          ..........          ..........",
"          ..........          ..........          ..........          ..........          ..........",
"          ..........          ..........          ..........          ..........          ..........",
"          ..........          ..........          ..........          ..........          ..........",
"          ..........          ..........          ..........          ..........          ..........",
"          ..........          ..........          ..........          ..........          ..........",
"..........          ..........          ..........          ..........          ..........          ",
"..........          ..........          ..........          ..........          ..........          ",
"..........          ..........          ..........          ..........          ..........          ",
"..........          ..........          ..........          ..........          ..........          ",
"..........          ..........          ..........          ..........          ..........          ",
"..........          ..........          ..........          ..........          ..........          ",
"..........          ..........          ..........          ..........          ..........          ",
"..........          ..........          ..........          ..........          ..........          ",
"..........          ..........          ..........          ..........          ..........          ",
"..........          ..........          ..........          ..........          ..........          "};
