/* XPM */
const static char * scroll_left_xpm[] = {
"16 16 66 1",
" 	c #000000",
".	c #151515",
"+	c #150015",
"@	c #F9F7F9",
"#	c #B2B0B2",
"$	c #C3C1C3",
"%	c #BCBABC",
"&	c #C8C6C8",
"*	c #BFBDBF",
"=	c #C9C7C9",
"-	c #BEBCBE",
";	c #AAA8AA",
">	c #D2D0D2",
",	c #C5C3C5",
"'	c #F2F0F2",
")	c #E3E1E3",
"!	c #DEDCDE",
"~	c #E0DEE0",
"{	c #D4D2D4",
"]	c #F1EFF1",
"^	c #E7E5E7",
"/	c #CAC8CA",
"(	c #E8E6E8",
"_	c #F7F5F7",
":	c #E4E2E4",
"<	c #B8B6B8",
"[	c #F5F3F5",
"}	c #D7D5D7",
"|	c #E5E3E5",
"1	c #D9D7D9",
"2	c #C7C5C7",
"3	c #DFDDDF",
"4	c #EFEDEF",
"5	c #CFCDCF",
"6	c #EDEBED",
"7	c #FFFEFF",
"8	c #D6D4D6",
"9	c #DAD8DA",
"0	c #DCDADC",
"a	c #E1DFE1",
"b	c #EAE8EA",
"c	c #ECEAEC",
"d	c #D8D6D8",
"e	c #F4F2F4",
"f	c #E6E4E6",
"g	c #EBE9EB",
"h	c #D3D1D3",
"i	c #D5D3D5",
"j	c #CDCBCD",
"k	c #CCCACC",
"l	c #A19FA1",
"m	c #E2E0E2",
"n	c #DBD9DB",
"o	c #1C1C1C",
"p	c #D1CFD1",
"q	c #FAF8FA",
"r	c #F0EEF0",
"s	c #A9A7A9",
"t	c #E9E7E9",
"u	c #D0CED0",
"v	c #C4C2C4",
"w	c #DDDBDD",
"x	c #EEECEE",
"y	c #C6C4C6",
"z	c #F6F4F6",
"A	c #FFFDFF",
"  .            +",
" @#$%%&#*=-;>,% ",
" ')!~!{]^/(_/:< ",
" [^}|1(2345}16$ ",
" 7890a~b5 !c)d2 ",
".e3)fagh  |5^ij ",
" 7!^ck5+  3a0cl ",
" 71mino   f9)1p ",
" qnr0>.   a3!ii ",
" 7hi6~n . 0:06s+",
" _ca8}69  t1e{- ",
" 7{)(3{3!.111uv ",
" b|!t8]fue{wc_* ",
".@:9)(5hx{txym# ",
" 7e7[@77z7A47A: ",
"                "};
