/* XPM */
const static char * scroll_down_xpm[] = {
"16 16 66 1",
" 	c #000000",
".	c #150015",
"+	c #E4E2E4",
"@	c #B2B0B2",
"#	c #BFBDBF",
"$	c #C4C2C4",
"%	c #BEBCBE",
"&	c #A9A7A9",
"*	c #D5D3D5",
"=	c #D1CFD1",
"-	c #A19FA1",
";	c #CDCBCD",
">	c #C7C5C7",
",	c #C3C1C3",
"'	c #B8B6B8",
")	c #BCBABC",
"!	c #FFFDFF",
"~	c #E2E0E2",
"{	c #F7F5F7",
"]	c #D0CED0",
"^	c #D4D2D4",
"/	c #EDEBED",
"(	c #D9D7D9",
"_	c #ECEAEC",
":	c #D8D6D8",
"<	c #C5C3C5",
"[	c #FFFEFF",
"}	c #C6C4C6",
"|	c #F4F2F4",
"1	c #DCDADC",
"2	c #DEDCDE",
"3	c #E3E1E3",
"4	c #E7E5E7",
"5	c #CAC8CA",
"6	c #D2D0D2",
"7	c #EFEDEF",
"8	c #EEECEE",
"9	c #DDDBDD",
"0	c #DFDDDF",
"a	c #DAD8DA",
"b	c #E1DFE1",
"c	c #CFCDCF",
"d	c #D7D5D7",
"e	c #AAA8AA",
"f	c #E9E7E9",
"g	c #E6E4E6",
"h	c #E5E3E5",
"i	c #E8E6E8",
"j	c #151515",
"k	c #C9C7C9",
"l	c #F6F4F6",
"m	c #D3D1D3",
"n	c #EAE8EA",
"o	c #F1EFF1",
"p	c #DBD9DB",
"q	c #1C1C1C",
"r	c #EBE9EB",
"s	c #E0DEE0",
"t	c #C8C6C8",
"u	c #F9F7F9",
"v	c #D6D4D6",
"w	c #CCCACC",
"x	c #F5F3F5",
"y	c #F0EEF0",
"z	c #FAF8FA",
"A	c #F2F0F2",
"      .        .",
" +@#$%&*=-;>,') ",
" !~{]^/*(_*:/+< ",
" [}_(|123143(56 ",
" 789((+0abc_d{e ",
" !f^(f1bg0h2ci% ",
" [^|j       75k ",
" l8]2 j    c04# ",
" [mg0a   .mn>o@ ",
" [co^/pjqcrsi^t ",
" uiv0ds6pwbb(2) ",
" x3fiv/1*_g1hs) ",
" [a23b*y~43ad2, ",
" |+h^_mp(20v43@j",
" [un[{[z[[|[xAu ",
"  j       j     "};
