/* XPM */
const static char * scroll_up_xpm[] = {
"16 16 66 1",
" 	c #000000",
".	c #151515",
"+	c #F9F7F9",
"@	c #F2F0F2",
"#	c #F5F3F5",
"$	c #FFFEFF",
"%	c #F4F2F4",
"&	c #FAF8FA",
"*	c #F7F5F7",
"=	c #EAE8EA",
"-	c #B2B0B2",
";	c #E3E1E3",
">	c #E7E5E7",
",	c #D6D4D6",
"'	c #DFDDDF",
")	c #DEDCDE",
"!	c #D9D7D9",
"~	c #DBD9DB",
"{	c #D3D1D3",
"]	c #ECEAEC",
"^	c #D4D2D4",
"/	c #E5E3E5",
"(	c #E4E2E4",
"_	c #C3C1C3",
":	c #D7D5D7",
"<	c #DAD8DA",
"[	c #E2E0E2",
"}	c #F0EEF0",
"|	c #D5D3D5",
"1	c #E1DFE1",
"2	c #BCBABC",
"3	c #E0DEE0",
"4	c #DCDADC",
"5	c #E6E4E6",
"6	c #EDEBED",
"7	c #E8E6E8",
"8	c #E9E7E9",
"9	c #CCCACC",
"0	c #D2D0D2",
"a	c #C8C6C8",
"b	c #EBE9EB",
"c	c #CFCDCF",
"d	c #1C1C1C",
"e	c #F1EFF1",
"f	c #C7C5C7",
"g	c #150015",
"h	c #BFBDBF",
"i	c #D0CED0",
"j	c #EEECEE",
"k	c #F6F4F6",
"l	c #C9C7C9",
"m	c #CAC8CA",
"n	c #EFEDEF",
"o	c #BEBCBE",
"p	c #FFFDFF",
"q	c #AAA8AA",
"r	c #DDDBDD",
"s	c #C6C4C6",
"t	c #C5C3C5",
"u	c #D8D6D8",
"v	c #B8B6B8",
"w	c #CDCBCD",
"x	c #A19FA1",
"y	c #D1CFD1",
"z	c #A9A7A9",
"A	c #C4C2C4",
"     .       .  ",
" +@#$%$$&$*$=+$ ",
".-;>,')!~{]^/(% ",
" _):<;>[}|1;)<$ ",
" 23/45]|46,78;# ",
" 2)!119~03:',7+ ",
" a^73bcd.~6^ec$ ",
" -ef={g   <'5{$ ",
" h>'c    . )ijk ",
" lmn       .%^$ ",
" o7c)/'5148!^8p ",
" q*:]c1<'(!!rjn ",
" 0m!;>4;)4%!]s$ ",
" t(6u|]!|6^i*[p ",
" 2v_fwxy|zoAh-( ",
"g        g      "};
