/* XPM */
const static char * scroll_right_xpm[] = {
"16 16 66 1",
" 	c #150015",
".	c #000000",
"+	c #151515",
"@	c #BCBABC",
"#	c #C5C3C5",
"$	c #D2D0D2",
"%	c #AAA8AA",
"&	c #BEBCBE",
"*	c #C9C7C9",
"=	c #BFBDBF",
"-	c #B2B0B2",
";	c #C8C6C8",
">	c #C3C1C3",
",	c #F9F7F9",
"'	c #B8B6B8",
")	c #E4E2E4",
"!	c #CAC8CA",
"~	c #F7F5F7",
"{	c #E8E6E8",
"]	c #E7E5E7",
"^	c #F1EFF1",
"/	c #D4D2D4",
"(	c #DEDCDE",
"_	c #E0DEE0",
":	c #E3E1E3",
"<	c #F2F0F2",
"[	c #EDEBED",
"}	c #D9D7D9",
"|	c #D7D5D7",
"1	c #CFCDCF",
"2	c #EFEDEF",
"3	c #DFDDDF",
"4	c #C7C5C7",
"5	c #E5E3E5",
"6	c #F5F3F5",
"7	c #D8D6D8",
"8	c #ECEAEC",
"9	c #EAE8EA",
"0	c #E1DFE1",
"a	c #DCDADC",
"b	c #DAD8DA",
"c	c #D6D4D6",
"d	c #FFFEFF",
"e	c #CDCBCD",
"f	c #D5D3D5",
"g	c #D3D1D3",
"h	c #EBE9EB",
"i	c #E6E4E6",
"j	c #F4F2F4",
"k	c #A19FA1",
"l	c #CCCACC",
"m	c #D1CFD1",
"n	c #1C1C1C",
"o	c #DBD9DB",
"p	c #E2E0E2",
"q	c #F0EEF0",
"r	c #FAF8FA",
"s	c #A9A7A9",
"t	c #E9E7E9",
"u	c #C4C2C4",
"v	c #D0CED0",
"w	c #DDDBDD",
"x	c #C6C4C6",
"y	c #EEECEE",
"z	c #FFFDFF",
"A	c #F6F4F6",
" ............+..",
".@#$%&*=-;@@>-,.",
".')!~{!]^/(_(:<.",
".>[}|1234{}5|]6.",
".47:8(.19_0abcd.",
".ef]15..gh0i:3j+",
".k8a03.. 1l8](d.",
".m}:bi...nofp}d.",
".ff(30...+$aqor.",
" s[a)a.+.o_[fgd.",
".&/j}t..b[|c08~.",
".uv}}}+(3/3{:/d.",
".=~8w/jvi^ct(59.",
".-pxyt/yg1{:b),+",
".)zd2zdAdd,6djd.",
"................"};
